<svg xmlns="http://www.w3.org/2000/svg" xmlns:xlink="http://www.w3.org/1999/xlink" width="70.718" height="70.718" viewBox="0 0 70.718 70.718"><defs><clipPath id="clip-path"><rect id="Rectangle_567" data-name="Rectangle 567" width="70.718" height="70.718" fill="none"></rect></clipPath></defs><g id="Group_1445" data-name="Group 1445" transform="translate(-918 -484)"><g id="Group_1442" data-name="Group 1442" transform="translate(918 484)"><g id="Group_1441" data-name="Group 1441" clip-path="url(#clip-path)"><path id="Path_969" data-name="Path 969" d="M70.718,35.359A35.359,35.359,0,1,1,35.359,0,35.36,35.36,0,0,1,70.718,35.359" fill="#ec1b2e"></path><path id="Path_970" data-name="Path 970" d="M57.188,40.758a4,4,0,0,1,5.685,0,3.855,3.855,0,0,1,0,5.635,4,4,0,0,1-5.685,0,3.937,3.937,0,0,1,0-5.635" fill="#39dfc6"></path><path id="Path_971" data-name="Path 971" d="M24.473,34.688v-.006" fill="#ec1b2e"></path><path id="Path_972" data-name="Path 972" d="M40.925,21.722a11.064,11.064,0,0,0-8.034,3.323,11.052,11.052,0,0,0-18.94,7.5V47.135h7.427V32.094a3.9,3.9,0,0,1,7.8-.114V47.135h7.431l0-15.117a3.9,3.9,0,0,1,7.8,0l.006,15.117h7.367l.077-14.366A11.123,11.123,0,0,0,40.925,21.722" fill="#fff"></path></g></g></g></svg>